<?xml version="1.0" encoding="UTF-8" standalone="no"?>
<!-- Created with Inkscape (http://www.inkscape.org/) -->

<svg
   xmlns:dc="http://purl.org/dc/elements/1.1/"
   xmlns:cc="http://creativecommons.org/ns#"
   xmlns:rdf="http://www.w3.org/1999/02/22-rdf-syntax-ns#"
   xmlns:svg="http://www.w3.org/2000/svg"
   xmlns="http://www.w3.org/2000/svg"
   xmlns:sodipodi="http://sodipodi.sourceforge.net/DTD/sodipodi-0.dtd"
   xmlns:inkscape="http://www.inkscape.org/namespaces/inkscape"
   width="297mm"
   height="297mm"
   viewBox="0 0 1052.3622 1052.3622"
   id="svg2"
   version="1.1"
   inkscape:version="0.92.5 (2060ec1f9f, 2020-04-08)"
   inkscape:export-filename="C:\Users\exetleos\Desktop\exetleos.png"
   inkscape:export-xdpi="90"
   inkscape:export-ydpi="90"
   sodipodi:docname="kopechli.svg">
  <defs
     id="defs4" />
  <sodipodi:namedview
     id="base"
     pagecolor="#ffffff"
     bordercolor="#666666"
     borderopacity="1.0"
     inkscape:pageopacity="0.0"
     inkscape:pageshadow="2"
     inkscape:zoom="0.35"
     inkscape:cx="830.21059"
     inkscape:cy="593.01388"
     inkscape:document-units="px"
     inkscape:current-layer="g4315"
     showgrid="false"
     inkscape:window-width="1920"
     inkscape:window-height="1016"
     inkscape:window-x="0"
     inkscape:window-y="0"
     inkscape:window-maximized="1" />
  <metadata
     id="metadata7">
    <rdf:RDF>
      <cc:Work
         rdf:about="">
        <dc:format>image/svg+xml</dc:format>
        <dc:type
           rdf:resource="http://purl.org/dc/dcmitype/StillImage" />
        <dc:title></dc:title>
      </cc:Work>
    </rdf:RDF>
  </metadata>
  <g
     inkscape:label="Layer 1"
     inkscape:groupmode="layer"
     id="layer1">
    <g
       id="g4315"
       transform="matrix(0.44199294,0,0,0.44199294,924.3984,513.38129)">
      <g
         id="g852"
         transform="translate(383.25011,2.4424743)">
        <path
           style="opacity:1;fill:#000000;fill-opacity:1;fill-rule:nonzero;stroke:none;stroke-width:17.13999939;stroke-linecap:round;stroke-linejoin:round;stroke-miterlimit:4;stroke-dasharray:none;stroke-dashoffset:0;stroke-opacity:1"
           d="m -1143.7607,-953.52418 c -86.5204,0.9199 -171.5973,34.7947 -237.2031,90.7572 -34.0769,32.3071 -57.6623,79.3036 -52.1641,127.1041 5.1489,53.2009 33.6593,100.1279 62.7227,143.6006 28.3855,42.8084 59.6195,86.8005 67.3387,138.8339 3.9432,34.3779 -8.1285,70.4852 5.8699,103.5426 11.2944,24.837 37.6946,36.486 60.9505,47.442 23.6073,10.831 46.6922,22.8221 68.3878,37.1383 47.5471,29.1178 94.7965,62.1317 150.1346,74.2962 31.30548,4.2748 61.01022,-18.7005 71.57787,-47.241 7.83967,-20.7727 7.54335,-43.4484 13.73637,-64.671 29.09981,-132.2425 65.18157,-265.1168 62.4127,-401.6588 -0.72269,-51.7144 -16.01869,-104.3519 -49.30164,-144.6522 -44.80817,-58.4327 -114.1861,-100.3149 -188.7018,-103.35 -11.9013,-0.8072 -23.8306,-1.2667 -35.7605,-1.1419 z"
           id="path4136"
           inkscape:connector-curvature="0" />
        <path
           style="opacity:1;fill:#ffffff;fill-opacity:1;fill-rule:nonzero;stroke:none;stroke-width:17.13999939;stroke-linecap:round;stroke-linejoin:round;stroke-miterlimit:4;stroke-dasharray:none;stroke-dashoffset:0;stroke-opacity:1"
           d="m -1089.8595,-747.39108 c -23.1378,0.1552 -49.612,8.8081 -60.1953,31.125 -4.2767,18.3523 10.5157,34.3022 25.0593,43.1038 31.4295,19.5894 67.1664,37.6347 105.2821,34.5345 23.02326,-3.5035 34.24492,-31.7605 26.54464,-52.1258 -15.05654,-37.8762 -57.80514,-57.3414 -96.69074,-56.6375 z"
           id="path4139"
           inkscape:connector-curvature="0" />
        <path
           style="opacity:1;fill:#ffffff;fill-opacity:1;fill-rule:nonzero;stroke:none;stroke-width:12.87047005;stroke-linecap:round;stroke-linejoin:round;stroke-miterlimit:4;stroke-dasharray:none;stroke-dashoffset:0;stroke-opacity:1"
           d="m -942.22784,-660.25028 c -0.36978,8.9014 5.64364,17.0973 13.39627,20.9887 9.06955,4.6649 20.3654,3.1838 28.85708,-2.0684 9.23706,-5.6148 16.27585,-14.2384 21.63239,-23.5057 6.79936,-12.2051 10.47132,-26.5279 8.54783,-40.4947 -0.86279,-5.4226 -2.65005,-11.0509 -6.66549,-14.9753 -3.36663,-2.8018 -8.49372,-2.9249 -12.0892,-0.4764 -7.00798,3.8026 -11.48826,10.645 -16.99686,16.1726 -9.51996,10.3646 -19.88602,19.9038 -29.79134,29.8861 -3.52503,4.066 -6.64724,8.9419 -6.89068,14.4731 z"
           id="path4145"
           inkscape:connector-curvature="0" />
        <path
           style="opacity:1;fill:#ffffff;fill-opacity:1;fill-rule:nonzero;stroke:none;stroke-width:17.13999939;stroke-linecap:round;stroke-linejoin:round;stroke-miterlimit:4;stroke-dasharray:none;stroke-dashoffset:0;stroke-opacity:1"
           d="m -1184.4482,-578.36398 c -6.5587,1.209 -12.5751,4.7633 -17.086,9.6367 -3.6011,9.0563 -3.6348,19.1086 -2.0794,28.6084 4.5556,29.566 9.4446,59.0801 14.5182,88.5612 1.5711,8.7224 3.1223,17.4603 5.1764,26.0823 5.4078,16.7501 14.7483,31.9483 25.4915,45.783 13.3465,17.1404 28.877,32.7623 46.9178,44.96 13.1473,8.7651 27.8171,15.622 43.4615,18.3561 12.531,2.1429 25.8009,1.5126 37.6207,-3.4465 8.5665,-3.5194 15.9589,-9.2918 22.7828,-15.4501 4.3615,-3.7209 9.27253,-7.3411 15.10294,-8.1476 5.99323,-0.6942 11.78325,1.4827 17.36926,3.3419 5.96139,1.8442 12.34721,3.4605 18.57869,2.0389 7.26587,-1.7486 13.18235,-7.1102 16.96195,-13.4005 5.77966,-9.2703 8.47992,-20.013 10.64258,-30.6074 4.25409,-20.1191 5.85729,-40.7282 10.87487,-60.6962 4.41557,-19.2478 8.84017,-38.5383 15.15884,-57.2703 3.82186,-11.9788 6.5777,-24.4745 6.21557,-37.1142 -0.18773,-9.0419 -1.76716,-18.287 -6.19941,-26.2719 -3.44963,-5.9253 -9.27578,-10.4688 -15.9597,-12.1105 -6.03037,-1.6696 -12.38065,-1.1181 -18.47991,-0.1619 -25.33338,3.0859 -50.57466,6.8674 -75.87418,10.2109 -23.6283,3.199 -47.2845,6.3886 -71.084,8.0011 -14.5662,0.4219 -28.9601,-2.6109 -42.9594,-6.3468 -12.9086,-3.5703 -25.4483,-8.3437 -38.3466,-11.9446 -5.9405,-1.5506 -12.0417,-2.8453 -18.2105,-2.6989 -0.1982,0.029 -0.3964,0.058 -0.5945,0.087 z"
           id="path4148"
           inkscape:connector-curvature="0" />
        <path
           style="opacity:1;fill:#ffffff;fill-opacity:1;fill-rule:nonzero;stroke:#eeeeee;stroke-width:7.91323757;stroke-linecap:round;stroke-linejoin:round;stroke-miterlimit:4;stroke-dasharray:none;stroke-dashoffset:0;stroke-opacity:1"
           d="m -947.69314,-601.90618 c 2.23339,-0.6813 4.36812,-2.1908 5.21173,-4.4407 0.49295,-2.7872 -0.68277,-5.5624 -2.26518,-7.8013 -4.95094,-8.387 -8.28723,-17.5776 -12.48706,-26.3344 -1.70232,-2.6083 -4.57748,-4.6075 -7.75637,-4.7058 -3.05088,0.3172 -5.53349,2.6872 -6.71963,5.4129 -2.89887,6.5699 -3.61643,13.7863 -5.16613,20.731 -0.71526,3.3401 -1.59063,6.843 -0.68988,10.2368 0.88674,3.0197 3.72906,5.098 6.69821,5.8053 5.39666,1.4027 10.99033,1.9269 16.5547,1.9717 2.22875,-0.034 4.47291,-0.2503 6.61961,-0.8755 z"
           id="path4177"
           inkscape:connector-curvature="0" />
        <path
           style="opacity:1;fill:#000000;fill-opacity:1;fill-rule:nonzero;stroke:none;stroke-width:17.13999939;stroke-linecap:round;stroke-linejoin:round;stroke-miterlimit:4;stroke-dasharray:none;stroke-dashoffset:0;stroke-opacity:1"
           d="m -1758.9302,-435.20848 c -51.9577,0.7837 -104.5707,2.4873 -155.0196,16.1445 32.2886,43.9283 91.4255,57.2953 143.168,51.5459 58.2126,5.3649 113.9004,25.1188 168.3444,45.3399 124.0337,49.7293 236.317,123.2731 355.1282,183.6045 101.7475,55.169403 199.6198,121.810203 312.6277,152.111803 39.53185,5.5129 74.16204,-27.4838 84.59262,-63.4833 23.63529,-63.978103 8.39849,-135.493203 -20.61856,-195.062803 -9.61373,-19.0061 -20.79522,-37.7827 -36.81664,-52.1204 -3.01144,22.7426 20.37492,38.1337 20.0915,60.572 8.82522,36.2254 8.64581,79.9899 -18.20116,108.819 -33.04313,17.5164 -70.81181,1.8371 -101.66326,-12.955 -156.7897,-65.7269 -300.1256,-159.0183 -456.392,-225.8157 -93.4105,-39.699 -192.7747,-70.086 -295.2412,-68.7004 z"
           id="path4203"
           inkscape:connector-curvature="0" />
        <path
           style="opacity:1;fill:#000000;fill-opacity:1;fill-rule:nonzero;stroke:none;stroke-width:21.58797264;stroke-linecap:round;stroke-linejoin:round;stroke-miterlimit:4;stroke-dasharray:none;stroke-dashoffset:0;stroke-opacity:1"
           d="m -1419.2748,764.91165 c -27.0978,75.8264 -53.9102,153.6225 -71.3355,241.60965 47.4419,2.3443 88.1084,-68.07885 111.6702,-149.12515 34.6613,-78.0018 77.8937,-136.3362 120.7863,-192.356 100.2407,-123.5454 210.6392,-203.6173 315.40663,-307.82103 92.13424,-85.3369 190.11092,-152.3077 271.10089,-281.584297 24.8264,-50.8883 20.5123,-137.594 1.2568,-192.734203 -31.50893,-105.349 -88.88798,-163.0157 -145.36661,-187.4995 -18.20912,-7.2985 -37.094,-12.0799 -55.49499,-4.9357 14.06788,29.6728 37.11224,13.0773 52.42157,38.4759 29.65385,27.6135 59.7123,76.6132 65.29509,147.4495 -5.50769,67.175903 -36.40097,104.198303 -63.00353,132.2300034 C -945.22478,161.60302 -1085.7471,264.47792 -1214.8931,415.51285 c -77.0404,90.5395 -150.8317,200.0388 -204.3817,349.3988 z"
           id="path4203-5"
           inkscape:connector-curvature="0"
           inkscape:transform-center-x="-268.59424"
           inkscape:transform-center-y="-20.817535" />
        <path
           style="opacity:1;fill:#000000;fill-opacity:1;fill-rule:nonzero;stroke:#eeeeee;stroke-width:14.80923653;stroke-linecap:round;stroke-linejoin:round;stroke-miterlimit:4;stroke-dasharray:none;stroke-dashoffset:0;stroke-opacity:1"
           d="m -1156.1644,-943.74218 c -26.1316,2.5147 -52.2514,6.5875 -77.3301,14.5351 -16.5254,6.196 -32.4216,14.0105 -47.6015,23 -5.0649,4.3923 -4.6972,13.4466 0.7578,17.3691 5.7591,4.0345 12.8394,5.2981 19.6309,6.4473 32.2633,5.6671 64.7461,10.5409 96.4011,19.1415 25.3447,7.3225 49.7864,17.599 73.0989,29.9134 9.5608,5.113 18.9868,10.4736 28.4771,15.7155 13.2135,7.3828 26.4036,14.8454 39.0508,23.1731 15.2789,10.2858 28.98349,22.9133 40.47904,37.3035 5.92541,7.4926 10.66208,15.8722 14.38481,24.6572 2.36057,5.3177 4.35548,11.0141 8.47927,15.2814 1.75127,1.7293 3.77656,3.5192 6.34564,3.7195 4.29187,0.5025 8.45198,-1.7386 11.26051,-4.8614 4.14248,-4.3688 6.58206,-10.0186 8.52567,-15.6356 3.00688,-9.414 2.89876,-19.4484 2.26159,-29.2046 -1.18745,-22.5886 -4.11955,-45.2349 -10.83327,-66.8952 -5.18938,-16.5637 -12.69981,-32.6384 -23.83219,-46.0712 -6.11456,-7.4193 -13.22708,-13.9746 -20.91374,-19.735 -9.39278,-7.3018 -19.10583,-14.1967 -29.10483,-20.643 -6.7231,-4.2449 -13.9271,-7.7292 -21.4678,-10.2607 -13.3544,-4.63 -27.2973,-7.1726 -41.1352,-9.8736 -25.3539,-4.7104 -51.1364,-7.2574 -76.9345,-7.0763 z"
           id="path4269"
           inkscape:connector-curvature="0"
           sodipodi:nodetypes="cccccccccccccccc" />
        <ellipse
           style="opacity:1;fill:#ffffff;fill-opacity:1;fill-rule:nonzero;stroke:none;stroke-width:7.52874947;stroke-linecap:round;stroke-linejoin:round;stroke-miterlimit:4;stroke-dasharray:none;stroke-dashoffset:0;stroke-opacity:1"
           id="path4272"
           cx="-839.01801"
           cy="-862.30688"
           rx="24.025705"
           ry="33.826847"
           transform="rotate(-7.9643055)" />
      </g>
    </g>
    <flowRoot
       xml:space="preserve"
       id="flowRoot4279"
       style="font-style:normal;font-weight:normal;line-height:0.01%;font-family:sans-serif;letter-spacing:0px;word-spacing:0px;fill:#000000;fill-opacity:1;stroke:none;stroke-width:1px;stroke-linecap:butt;stroke-linejoin:miter;stroke-opacity:1"><flowRegion
         id="flowRegion4281"><rect
           id="rect4283"
           width="1062.8572"
           height="320"
           x="-2977.1428"
           y="-1370.495" /></flowRegion><flowPara
         id="flowPara4285"
         style="font-size:40px;line-height:1.25"> </flowPara></flowRoot>    <flowRoot
       xml:space="preserve"
       id="flowRoot4287"
       style="font-style:normal;font-weight:normal;line-height:0.01%;font-family:sans-serif;letter-spacing:0px;word-spacing:0px;fill:#000000;fill-opacity:1;stroke:none;stroke-width:1px;stroke-linecap:butt;stroke-linejoin:miter;stroke-opacity:1"><flowRegion
         id="flowRegion4289"><rect
           id="rect4291"
           width="285.71429"
           height="102.85714"
           x="-2977.1428"
           y="-1410.495" /></flowRegion><flowPara
         id="flowPara4293"
         style="font-size:40px;line-height:1.25"> </flowPara></flowRoot>    <text
       xml:space="preserve"
       style="font-style:normal;font-weight:normal;line-height:0%;font-family:sans-serif;letter-spacing:0px;word-spacing:0px;fill:#000000;fill-opacity:1;stroke:none;stroke-width:1px;stroke-linecap:butt;stroke-linejoin:miter;stroke-opacity:1"
       x="-3491.0872"
       y="-5299.4771"
       id="text4295"><tspan
         sodipodi:role="line"
         id="tspan4297"
         x="-3491.0872"
         y="-5299.4771"
         style="font-size:40px;line-height:1.25"> </tspan></text>
    <flowRoot
       xml:space="preserve"
       id="flowRoot4299"
       style="font-style:normal;font-weight:normal;line-height:0.01%;font-family:sans-serif;letter-spacing:0px;word-spacing:0px;fill:#000000;fill-opacity:1;stroke:none;stroke-width:1px;stroke-linecap:butt;stroke-linejoin:miter;stroke-opacity:1"><flowRegion
         id="flowRegion4301"><rect
           id="rect4303"
           width="5005.7144"
           height="1965.7142"
           x="-4960"
           y="-6056.209" /></flowRegion><flowPara
         id="flowPara4305"
         style="font-size:40px;line-height:1.25"> </flowPara></flowRoot>    <flowRoot
       xml:space="preserve"
       id="flowRoot4307"
       style="font-style:normal;font-weight:normal;line-height:0.01%;font-family:sans-serif;letter-spacing:0px;word-spacing:0px;fill:#000000;fill-opacity:1;stroke:none;stroke-width:1px;stroke-linecap:butt;stroke-linejoin:miter;stroke-opacity:1"><flowRegion
         id="flowRegion4309"><rect
           id="rect4311"
           width="5874.2856"
           height="2720"
           x="-7154.2856"
           y="983.79077" /></flowRegion><flowPara
         id="flowPara4313"
         style="font-size:40px;line-height:1.25"> </flowPara></flowRoot>  </g>
</svg>
