<svg version="1" xmlns="http://www.w3.org/2000/svg" width="1497.333" height="1497.333" viewBox="0 0 1123.000000 1123.000000"><path d="M194.9 39.8c-.8.3-2.3 1.6-3.5 2.9l-2 2.3v177.6l.1 177.5-2.2-.4c-1.3-.2-2.3 0-2.3.5s-.8.5-1.7.1c-5.4-2.5-11.1.7-11.1 6.3 0 2-.2 3.8-.5 4.1-.3.3-.2 1.6.3 2.9.6 1.4.6 2.6 0 2.9-.5.3-.7 1.1-.4 1.8.8 2.2 1.1 8.7.3 8.7-.4 0-.4 1.2 0 2.7.4 1.6.5 4.2.1 5.8-.4 1.7-.5 3.9-.3 5 .6 2.9.5 13.6-.1 14.2-.2.3-.1 1.6.4 2.8.6 1.6.5 2.5-.3 2.9-.7.2-.7.5-.2.5 1.1.1 1.1 7.4 0 9-.3.5-.1 1.2.5 1.6.6.4.8 1.1.4 1.6-.3.6-.5 3.6-.4 6.7.1 3.1.1 6.3.1 6.9-.1 1.4-.1 3.5-.1 5.8.1.8.1 3 .1 4.7 0 1.8.1 4.6.2 6.3.1 1.6-.1 4.2-.5 5.7-.3 1.6-.3 2.8.2 2.8.4 0 .5 1.5.1 3.3-.5 1.8-.6 4.1-.4 5.2.2 1.1.3 5 .3 8.7v8.5c.1 10.2.1 12.6-.4 13-.2.3-.1 1.6.4 2.8.6 1.6.5 2.5-.3 2.9-.7.2-.7.5-.2.5 1.1.1 1.1 7.4 0 9-.3.5-.1 1.2.4 1.5.5.3.6 2.1.2 3.8-.4 1.8-.6 4.6-.4 6.3.8 7.2.8 9.1.1 11.2-.4 1.2-.3 2.5.1 2.8.5.3.6 2 .2 3.8-.5 1.8-.6 4.1-.4 5.2.2 1.1.4 2.4.4 3v5c0 3.8-.1 8.2-.1 14 0 4.3 0 5.9-.1 8.8-.1 4.9 1.2 8.6 3.2 9.2 1.1.4 16.7.6 34.6.6 27.9 0 32.9-.2 34.2-1.5 1.3-1.4 1.5-15 1.5-119.1 0-85.6-.3-117.8-1.1-118.6-1.8-1.8-10.9-2.9-13.5-1.6-1.1.4-1.8.4-1.8-.2 0-.5-.9-.7-2-.4-1.3.3-2 0-2.1-.8-.1-.8-.2-80.4-.3-176.9-.1-130.7-.5-176-1.3-177.6-2.5-4.4-4.1-4.9-15.8-5-6.1 0-11.8.2-12.6.4z"/><path d="M337.7 153.6c-.2.3-2.4.6-4.8.9-2.4.2-7.3 1.3-10.9 2.3-6.5 1.9-21.9 8.6-23 10-.3.4-3 2.4-6.1 4.5-16.8 11.3-32 35-35.5 55.2-.4 2.2-.9 4.9-1.2 6-.3 1.1-.6 97.4-.7 214-.2 116.6-.3 212.8-.4 213.7-.1.9-1 2-2.2 2.3-3 1-8.6 7.2-11.2 12.5-2.1 4.3-2.2 5.7-2.5 37.1-.3 30.7-.2 32.9 1.8 38.1 2.1 5.6 8.4 13.2 12 14.3 1.1.3 2 1.4 2.1 2.3 0 .9.2 13.6.4 28.2.1 14.6.6 27.8.9 29.5.9 4.6 2.7 11.8 3.3 13.5.4.8.7 1.9.8 2.5.2.5 1.4 3.4 2.9 6.4 1.4 3 2.6 6 2.6 6.7 0 .6.7 1.4 1.5 1.8.8.3 1.5 1.2 1.5 2 0 3.6 16.8 21.9 25 27.2 2.5 1.6 4.7 3.2 5 3.5.8.9 15.8 8 17.7 8.4 1 .2 1.9.4 2.1.5.1.2.5.3 1 .5.4.1 1.4.4 2.2.8.8.3 2.9.8 4.5 1 1.7.3 4.1.8 5.5 1.2 1.4.5 39.6.9 85 1 45.4.1 87.7.6 94 1 6.3.4 13.5.9 16 1.1 2.5.1 4.5.3 4.5.4 0 .6 31.1 1.4 57.5 1.4 33.1 0 44.8-.4 77-2.9 5.2-.4 48.4-.9 96-1 47.6-.1 87.9-.5 89.5-.9 16.9-3.9 24.1-6.9 36-14.8 11.5-7.7 22.7-19.7 28.6-30.8 1.3-2.5 2.9-4.8 3.4-5.2.6-.4.6-.8.1-.8s-.4-.6.1-1.3c.6-.6 1.8-3.7 2.8-6.7 1-3 2-5.9 2.3-6.5.3-.5.7-1.6.7-2.5.1-.8.5-3 .9-4.8.4-1.8.9-5.1 1.1-7.3.2-2.2.6-4.3.9-4.6.3-.3.1-1.4-.5-2.4-.5-1.1-.6-1.9-.2-1.9.4 0 .8-4.5.8-10s-.4-10-.8-10c-.5 0-.5-.5-.1-1.2 1-1.6 1.1-11.8.1-11.8-.4 0-.5-.5-.1-1.2.4-.6.8-3.4.9-6.1 0-3.4.6-5.2 1.7-5.8 6.4-3.6 12.2-11.5 13.5-18.4.3-2.2.6-18 .6-35 0-29-.1-31.3-2.1-35.6-2.2-5.1-8.9-12.9-10.9-12.9-.7 0-1.3-.3-1.4-.8-.1-.4-.2-2.1-.4-3.7-.1-1.7-.3-3-.4-3-1 0-1.2-4.3-.9-15.8.2-4.8-.1-8.7-.5-8.7-.5 0-.5-.5-.1-1.2 1-1.7 1.1-11.8.1-11.8-.6 0-.6-.5-.1-1.3.5-.6.8-5.7.7-11.2-.3-13.1-.3-12.4 0-17 .2-2.2-.1-4.6-.6-5.3-.5-.6-.6-1.2-.1-1.2 1.1 0 1.1-12.1 0-13.8-.4-.7-.4-1.2.1-1.2.4 0 .8-2.3.8-5 0-2.8-.4-5-.8-5-.5 0-.5-.5-.1-1.2 1-1.6 1.1-20.8.1-20.8-.5 0-.5-.5-.1-1.2 1-1.6 1.1-11.8.1-11.8-.4 0-.5-.5-.1-1.2 1-1.6 1.1-17.8.1-17.8-.5 0-.5-.5-.1-1.2 1-1.7 1.1-11.8.1-11.8-.6 0-.6-.5-.1-1.3.5-.6.8-5.7.7-11.2-.3-13.1-.3-12.4 0-17 .2-2.2-.1-4.6-.6-5.3-.5-.6-.6-1.2-.1-1.2 1.1 0 1.1-12.1 0-13.8-.4-.7-.4-1.2.1-1.2.4 0 .8-2.3.8-5 0-2.8-.4-5-.8-5-.5 0-.5-.5-.1-1.2 1-1.6 1.1-20.8.1-20.8-.5 0-.5-.5-.1-1.2 1-1.6 1.1-11.8.1-11.8-.4 0-.5-.5-.1-1.2 1-1.6 1.1-17.8.1-17.8-.5 0-.5-.5-.1-1.2 1-1.7 1.1-11.8.1-11.8-.6 0-.6-.5-.1-1.3.5-.6.8-5.7.7-11.2-.3-13.1-.3-12.4 0-17 .2-2.2-.1-4.6-.6-5.3-.5-.6-.6-1.2-.1-1.2 1.1 0 1.1-12.1 0-13.8-.4-.7-.4-1.2.1-1.2.4 0 .8-2.3.8-5 0-2.8-.4-5-.8-5-.5 0-.5-.5-.1-1.2 1-1.6 1.1-20.8.1-20.8-.5 0-.5-.5-.1-1.2 1-1.7 1.1-11.8.1-11.8-.6 0-.6-.5-.1-1.3.5-.6.8-4.6.7-8.7-.2-4.1-.3-8.4-.2-9.5 0-1.1 0-2.5.1-3 0-1.9-1-12-1.7-16-1-6.1-5.3-18.4-8.4-24-3.6-6.6-5.5-9.9-6.1-10.5-.3-.3-1.8-2.2-3.3-4.3-10.6-14.2-28.1-26.3-45.2-31.2-15.2-4.4-5.7-4.3-271.7-4.3-139.5 0-253.8.2-254.1.4zM500.4 938.7c-1.6.8-3.9 2.8-5.1 4.6-2.2 3.1-2.3 3.2-2.3 46.9v43.8l3.9 4c2.9 3.1 4.6 4 7.2 4.1 23.1.5 179.9.2 179.9-.4 0-.5.4-.6.9-.2 1.4.8 7.7-5.9 8.3-8.6.2-1.3.4-21.3.3-44.5 0-46.2.1-45-6.2-49.1-2.5-1.7-8.5-1.8-93.3-1.9-75.5 0-91.1.2-93.6 1.3z"/></svg>