<?xml version="1.0" standalone="no"?>
<!DOCTYPE svg PUBLIC "-//W3C//DTD SVG 20010904//EN"
 "http://www.w3.org/TR/2001/REC-SVG-20010904/DTD/svg10.dtd">
<svg version="1.0" xmlns="http://www.w3.org/2000/svg"
 width="700.000000pt" height="700.000000pt" viewBox="0 0 700.000000 700.000000"
 preserveAspectRatio="xMidYMid meet">
<metadata>
Created by potrace 1.11, written by Peter Selinger 2001-2013
</metadata>
<g transform="translate(0.000000,700.000000) scale(0.100000,-0.100000)"
fill="#000000" stroke="none">
<path d="M1420 6392 c-14 -2 -31 -11 -37 -20 -10 -12 -13 -236 -13 -1038 l0
-1022 -32 2 c-74 5 -68 63 -68 -693 0 -531 3 -681 13 -689 7 -6 90 -9 205 -9
177 0 194 2 200 18 4 10 7 320 7 689 -1 512 -4 673 -13 679 -7 4 -27 6 -44 5
-70 -6 -64 -102 -64 1026 0 909 -2 1022 -16 1036 -15 15 -86 23 -138 16z"/>
<path d="M2174 5725 c-201 -42 -361 -201 -408 -405 -13 -56 -15 -234 -16
-1288 l0 -1224 -31 -25 c-56 -48 -60 -66 -61 -278 -1 -192 0 -194 26 -239 14
-24 35 -48 46 -51 19 -6 20 -16 21 -153 0 -81 2 -155 4 -164 2 -9 6 -36 9 -59
3 -23 24 -79 45 -123 71 -146 198 -247 359 -286 38 -9 201 -13 580 -15 290 -2
570 -7 622 -11 122 -10 464 -10 600 0 58 4 353 10 655 12 303 2 557 5 565 7
175 40 318 146 386 287 30 60 37 82 51 150 3 14 6 95 7 181 l2 156 36 32 c20
17 41 44 46 60 6 16 11 113 12 215 1 168 -1 189 -19 225 -12 22 -30 46 -41 54
-11 8 -23 25 -27 38 -3 13 -6 573 -7 1244 -2 1138 -3 1224 -20 1280 -54 182
-178 309 -363 372 -44 15 -187 17 -1533 18 -1178 2 -1498 0 -1546 -10z"/>
<path d="M3168 1203 c-15 -7 -32 -22 -36 -35 -5 -13 -8 -134 -8 -270 1 -242 1
-248 23 -270 l23 -22 525 0 c553 1 567 2 581 46 3 10 5 129 5 265 l0 246 -24
25 -25 24 -517 2 c-384 1 -525 -2 -547 -11z"/>
</g>
</svg>
